# xmcd CD database file
#
# Track frame offsets:
#	150
#	16263
#	30165
#	50987
#	63423
#	78251
#	92579
#	109039
#	123875
#	136974
#
# Disc length: 2001 seconds
#
# Revision: 0
# Processed by: cddbd v1.5.2PL0 Copyright (c) Steve Scherf et al.
# Submitted via: CDex 1.51
#
DISCID=7507cf0a
DTITLE=Jazz Hits - Volume 2
DYEAR=2000
DGENRE=Jazz
TTITLE0=Benny Goodman and His Orchestra - Blue Skies
TTITLE1=Count Basie - One O'Clock Jump
TTITLE2=Fats Waller - Honeysuckle Rose
TTITLE3=Count Basie and His Orchestra - Swngin' The Blues
TTITLE4=Artie Shaw and His Orchestra - Begin the Beguine
TTITLE5=Tommy Dorsey - Boogie Woogie
TTITLE6=Glenn Miller and His Orchestra - In the Mood
TTITLE7=Woody Herman and Hs Orchestra - Woodchopper's Ball
TTITLE8=Cab Calloway and His Orchestra - Jumpin' Jive
TTITLE9=Duke Ellington - Solutude
EXTD=YEAR: 2000
EXTT0=
EXTT1=
EXTT2=
EXTT3=
EXTT4=
EXTT5=
EXTT6=
EXTT7=
EXTT8=
EXTT9=
PLAYORDER=
